<svg xmlns="http://www.w3.org/2000/svg" xmlns:xlink="http://www.w3.org/1999/xlink" width="418" zoomAndPan="magnify" viewBox="0 0 313.5 303.749991" height="405" preserveAspectRatio="xMidYMid meet" version="1.0"><defs><g/><clipPath id="84f7af212e"><path d="M 231.226562 162.699219 L 312.285156 162.699219 L 312.285156 243.757812 L 231.226562 243.757812 Z M 231.226562 162.699219 " clip-rule="nonzero"/></clipPath><clipPath id="4936dd7363"><path d="M 271.753906 162.699219 C 249.371094 162.699219 231.226562 180.84375 231.226562 203.226562 C 231.226562 225.613281 249.371094 243.757812 271.753906 243.757812 C 294.140625 243.757812 312.285156 225.613281 312.285156 203.226562 C 312.285156 180.84375 294.140625 162.699219 271.753906 162.699219 Z M 271.753906 162.699219 " clip-rule="nonzero"/></clipPath></defs><path stroke-linecap="butt" transform="matrix(2.037184, 0, 0, 2.037184, 158.198776, 91.270395)" fill="none" stroke-linejoin="miter" d="M 58.864795 53.999519 L 38.892371 53.999519 L 29.431547 38.046123 L 29.122834 38.046123 L 19.663928 53.999519 L 1.181382 53.999519 L 19.518199 26.876829 L 2.981891 2.737731 L 22.866112 2.737731 L 30.61463 15.853263 L 30.923343 15.853263 L 38.746643 2.737731 L 57.13715 2.737731 L 40.527978 26.949693 Z M 58.864795 53.999519 " stroke="#4a6b96" stroke-width="2.328515" stroke-opacity="1" stroke-miterlimit="4"/><g fill="#fff4e9" fill-opacity="1"><g transform="translate(160.013143, 201.278325)"><g><path d="M 118.09375 0 L 77.421875 0 L 58.140625 -32.484375 L 57.53125 -32.484375 L 38.25 0 L 0.609375 0 L 37.953125 -55.25 L 4.25 -104.4375 L 44.78125 -104.4375 L 60.5625 -77.71875 L 61.171875 -77.71875 L 77.109375 -104.4375 L 114.609375 -104.4375 L 80.75 -55.109375 Z M 118.09375 0 "/></g></g></g><g clip-path="url(#84f7af212e)"><g clip-path="url(#4936dd7363)"><path fill="#db4a2b" d="M 231.226562 162.699219 L 312.285156 162.699219 L 312.285156 243.757812 L 231.226562 243.757812 Z M 231.226562 162.699219 " fill-opacity="1" fill-rule="nonzero"/></g></g><g fill="#fff4e9" fill-opacity="1"><g transform="translate(246.796662, 210.456614)"><g><path d="M 16.25 -13.96875 L 13.78125 0 L 9.03125 0 L 5.6875 -9.25 L 4.0625 0 L 0.421875 0 L 2.890625 -13.96875 L 7.421875 -13.96875 L 10.921875 -4.3125 L 12.609375 -13.96875 Z M 16.25 -13.96875 "/></g></g></g><g fill="#fff4e9" fill-opacity="1"><g transform="translate(262.052404, 210.456614)"><g><path d="M 9.453125 -14.25 C 10.878906 -14.25 12.085938 -13.984375 13.078125 -13.453125 C 14.066406 -12.929688 14.820312 -12.210938 15.34375 -11.296875 C 15.863281 -10.390625 16.125 -9.351562 16.125 -8.1875 C 16.125 -6.882812 15.914062 -5.707031 15.5 -4.65625 C 15.082031 -3.601562 14.5 -2.710938 13.75 -1.984375 C 13.007812 -1.253906 12.144531 -0.691406 11.15625 -0.296875 C 10.175781 0.0859375 9.125 0.28125 8 0.28125 C 6.582031 0.28125 5.375 0.0195312 4.375 -0.5 C 3.375 -1.03125 2.613281 -1.753906 2.09375 -2.671875 C 1.570312 -3.585938 1.3125 -4.617188 1.3125 -5.765625 C 1.3125 -7.085938 1.519531 -8.269531 1.9375 -9.3125 C 2.351562 -10.363281 2.929688 -11.253906 3.671875 -11.984375 C 4.421875 -12.710938 5.285156 -13.269531 6.265625 -13.65625 C 7.253906 -14.050781 8.316406 -14.25 9.453125 -14.25 Z M 8.109375 -2.390625 C 8.816406 -2.390625 9.429688 -2.5625 9.953125 -2.90625 C 10.484375 -3.25 10.921875 -3.695312 11.265625 -4.25 C 11.609375 -4.8125 11.863281 -5.429688 12.03125 -6.109375 C 12.195312 -6.785156 12.28125 -7.445312 12.28125 -8.09375 C 12.28125 -9.113281 12.03125 -9.945312 11.53125 -10.59375 C 11.03125 -11.25 10.296875 -11.578125 9.328125 -11.578125 C 8.628906 -11.578125 8.015625 -11.40625 7.484375 -11.0625 C 6.960938 -10.71875 6.53125 -10.265625 6.1875 -9.703125 C 5.84375 -9.140625 5.582031 -8.519531 5.40625 -7.84375 C 5.238281 -7.175781 5.15625 -6.519531 5.15625 -5.875 C 5.15625 -4.84375 5.40625 -4.003906 5.90625 -3.359375 C 6.40625 -2.710938 7.140625 -2.390625 8.109375 -2.390625 Z M 8.109375 -2.390625 "/></g></g></g><g fill="#fff4e9" fill-opacity="1"><g transform="translate(277.752694, 210.456614)"><g><path d="M 22.34375 -13.96875 L 16.375 0 L 11.515625 0 L 11.515625 -10.21875 L 7.953125 0 L 3.078125 0 L 2.046875 -13.96875 L 5.78125 -13.96875 L 6.046875 -3.140625 L 9.546875 -13.765625 L 14.796875 -13.765625 L 14.484375 -2.953125 L 18.3125 -13.96875 Z M 22.34375 -13.96875 "/></g></g></g><path stroke-linecap="butt" transform="matrix(1.617578, 1.23837, -1.23837, 1.617578, 133.971548, 66.105259)" fill="none" stroke-linejoin="miter" d="M 21.64818 2.738681 L 38.112037 2.737673 L 38.110168 53.999688 L 21.647834 53.99953 Z M 21.64818 2.738681 " stroke="#4a6b96" stroke-width="2.328515" stroke-opacity="1" stroke-miterlimit="4"/><g fill="#fff4e9" fill-opacity="1"><g transform="translate(91.995085, 172.513738)"><g><path d="M 10.125 7.75 L 73.609375 -75.171875 L 100.25 -54.78125 L 36.765625 28.140625 Z M 10.125 7.75 "/></g></g></g><path stroke-linecap="butt" transform="matrix(2.037184, 0, 0, 2.037184, 32.785763, 90.52159)" fill="none" stroke-linejoin="miter" d="M 10.543899 2.737144 L 51.963286 2.737144 L 51.963286 15.035832 L 27.005426 15.035832 L 27.005426 23.821704 L 48.471563 23.821704 L 48.471563 35.591168 L 27.005426 35.591168 L 27.005426 54.00085 L 10.543899 54.00085 Z M 10.543899 2.737144 " stroke="#4a6b96" stroke-width="2.328515" stroke-opacity="1" stroke-miterlimit="4"/><g fill="#fff4e9" fill-opacity="1"><g transform="translate(43.035344, 200.529519)"><g><path d="M 11.234375 -104.4375 L 95.625 -104.4375 L 95.625 -79.390625 L 44.78125 -79.390625 L 44.78125 -61.484375 L 88.5 -61.484375 L 88.5 -37.5 L 44.78125 -37.5 L 44.78125 0 L 11.234375 0 Z M 11.234375 -104.4375 "/></g></g></g></svg>