<svg xmlns="http://www.w3.org/2000/svg" xmlns:xlink="http://www.w3.org/1999/xlink" width="500" zoomAndPan="magnify" viewBox="0 0 375 374.999991" height="500" preserveAspectRatio="xMidYMid meet" version="1.0"><defs><g/><clipPath id="8d4eeadf08"><path d="M 244.117188 198.578125 L 325.304688 198.578125 L 325.304688 279.769531 L 244.117188 279.769531 Z M 244.117188 198.578125 " clip-rule="nonzero"/></clipPath><clipPath id="bfa97bad04"><path d="M 284.710938 198.578125 C 262.289062 198.578125 244.117188 216.753906 244.117188 239.171875 C 244.117188 261.59375 262.289062 279.769531 284.710938 279.769531 C 307.132812 279.769531 325.304688 261.59375 325.304688 239.171875 C 325.304688 216.753906 307.132812 198.578125 284.710938 198.578125 Z M 284.710938 198.578125 " clip-rule="nonzero"/></clipPath></defs><path stroke-linecap="butt" transform="matrix(2.040433, 0, 0, 2.040433, 170.973449, 127.037012)" fill="none" stroke-linejoin="miter" d="M 58.864264 53.999196 L 38.891098 53.999196 L 29.431938 38.046316 L 29.123716 38.046316 L 19.664556 53.999196 L 1.18081 53.999196 L 19.51906 26.877577 L 2.982281 2.738628 L 22.86547 2.738628 L 30.615051 15.854335 L 30.923272 15.854335 L 38.745601 2.738628 L 57.137455 2.738628 L 40.527928 26.950325 Z M 58.864264 53.999196 " stroke="#fff4e9" stroke-width="2.328515" stroke-opacity="1" stroke-miterlimit="4"/><g fill="#4a6b96" fill-opacity="1"><g transform="translate(172.79071, 237.22039)"><g><path d="M 118.28125 0 L 77.53125 0 L 58.234375 -32.53125 L 57.625 -32.53125 L 38.3125 0 L 0.609375 0 L 38 -55.34375 L 4.25 -104.59375 L 44.84375 -104.59375 L 60.65625 -77.84375 L 61.265625 -77.84375 L 77.234375 -104.59375 L 114.78125 -104.59375 L 80.875 -55.1875 Z M 118.28125 0 "/></g></g></g><g clip-path="url(#8d4eeadf08)"><g clip-path="url(#bfa97bad04)"><path fill="#db4a2b" d="M 244.117188 198.578125 L 325.304688 198.578125 L 325.304688 279.769531 L 244.117188 279.769531 Z M 244.117188 198.578125 " fill-opacity="1" fill-rule="nonzero"/></g></g><g fill="#fff4e9" fill-opacity="1"><g transform="translate(259.712625, 246.413318)"><g><path d="M 16.265625 -13.984375 L 13.796875 0 L 9.03125 0 L 5.6875 -9.265625 L 4.078125 0 L 0.421875 0 L 2.890625 -13.984375 L 7.4375 -13.984375 L 10.9375 -4.3125 L 12.625 -13.984375 Z M 16.265625 -13.984375 "/></g></g></g><g fill="#fff4e9" fill-opacity="1"><g transform="translate(274.992698, 246.413318)"><g><path d="M 9.46875 -14.265625 C 10.894531 -14.265625 12.101562 -14 13.09375 -13.46875 C 14.09375 -12.945312 14.851562 -12.226562 15.375 -11.3125 C 15.894531 -10.40625 16.15625 -9.367188 16.15625 -8.203125 C 16.15625 -6.890625 15.941406 -5.707031 15.515625 -4.65625 C 15.097656 -3.601562 14.519531 -2.710938 13.78125 -1.984375 C 13.039062 -1.253906 12.175781 -0.691406 11.1875 -0.296875 C 10.195312 0.0859375 9.132812 0.28125 8 0.28125 C 6.582031 0.28125 5.375 0.0195312 4.375 -0.5 C 3.375 -1.03125 2.613281 -1.753906 2.09375 -2.671875 C 1.570312 -3.585938 1.3125 -4.625 1.3125 -5.78125 C 1.3125 -7.101562 1.519531 -8.285156 1.9375 -9.328125 C 2.363281 -10.378906 2.945312 -11.269531 3.6875 -12 C 4.425781 -12.726562 5.289062 -13.285156 6.28125 -13.671875 C 7.269531 -14.066406 8.332031 -14.265625 9.46875 -14.265625 Z M 8.125 -2.390625 C 8.832031 -2.390625 9.445312 -2.5625 9.96875 -2.90625 C 10.5 -3.25 10.9375 -3.703125 11.28125 -4.265625 C 11.625 -4.828125 11.878906 -5.445312 12.046875 -6.125 C 12.210938 -6.800781 12.296875 -7.460938 12.296875 -8.109375 C 12.296875 -9.128906 12.046875 -9.960938 11.546875 -10.609375 C 11.046875 -11.265625 10.3125 -11.59375 9.34375 -11.59375 C 8.632812 -11.59375 8.015625 -11.421875 7.484375 -11.078125 C 6.960938 -10.734375 6.53125 -10.28125 6.1875 -9.71875 C 5.84375 -9.15625 5.585938 -8.535156 5.421875 -7.859375 C 5.253906 -7.179688 5.171875 -6.519531 5.171875 -5.875 C 5.171875 -4.851562 5.421875 -4.015625 5.921875 -3.359375 C 6.421875 -2.710938 7.15625 -2.390625 8.125 -2.390625 Z M 8.125 -2.390625 "/></g></g></g><g fill="#fff4e9" fill-opacity="1"><g transform="translate(290.718029, 246.413318)"><g><path d="M 22.375 -13.984375 L 16.390625 0 L 11.53125 0 L 11.53125 -10.234375 L 7.96875 0 L 3.078125 0 L 2.046875 -13.984375 L 5.796875 -13.984375 L 6.0625 -3.140625 L 9.5625 -13.78125 L 14.8125 -13.78125 L 14.515625 -2.953125 L 18.34375 -13.984375 Z M 22.375 -13.984375 "/></g></g></g><path stroke-linecap="butt" transform="matrix(1.620157, 1.240345, -1.240345, 1.620157, 146.707569, 101.831741)" fill="none" stroke-linejoin="miter" d="M 21.648339 2.736791 L 38.111654 2.737828 L 38.111353 53.998993 L 21.647681 54.00064 Z M 21.648339 2.736791 " stroke="#fff4e9" stroke-width="2.328515" stroke-opacity="1" stroke-miterlimit="4"/><g fill="#4a6b96" fill-opacity="1"><g transform="translate(104.664159, 208.409927)"><g><path d="M 10.140625 7.765625 L 73.71875 -75.28125 L 100.40625 -54.859375 L 36.828125 28.1875 Z M 10.140625 7.765625 "/></g></g></g><path stroke-linecap="butt" transform="matrix(2.040433, 0, 0, 2.040433, 45.360405, 126.287013)" fill="none" stroke-linejoin="miter" d="M 10.542218 2.738628 L 51.96457 2.738628 L 51.96457 15.034962 L 27.006249 15.034962 L 27.006249 23.82216 L 48.47075 23.82216 L 48.47075 35.590113 L 27.006249 35.590113 L 27.006249 53.999196 L 10.542218 53.999196 Z M 10.542218 2.738628 " stroke="#fff4e9" stroke-width="2.328515" stroke-opacity="1" stroke-miterlimit="4"/><g fill="#4a6b96" fill-opacity="1"><g transform="translate(55.626333, 236.47039)"><g><path d="M 11.25 -104.59375 L 95.78125 -104.59375 L 95.78125 -79.515625 L 44.84375 -79.515625 L 44.84375 -61.578125 L 88.640625 -61.578125 L 88.640625 -37.546875 L 44.84375 -37.546875 L 44.84375 0 L 11.25 0 Z M 11.25 -104.59375 "/></g></g></g></svg>